<?xml version="1.0" encoding="utf-8"?>
<!-- Generator: Adobe Illustrator 28.1.0, SVG Export Plug-In . SVG Version: 6.00 Build 0)  -->
<svg version="1.1" id="Ebene_1" xmlns="http://www.w3.org/2000/svg" xmlns:xlink="http://www.w3.org/1999/xlink" x="0px" y="0px"
	 viewBox="0 0 675.35 736.19" style="enable-background:new 0 0 675.35 736.19;" xml:space="preserve">
<style type="text/css">
	.st0{fill:#EF7C00;}
	.st1{fill:#FFFFFF;}
</style>
<path class="st0" d="M178.29,628.87c-13.55-9.03-27-17.37-39.8-26.62c-59.35-42.9-99.99-99.58-122.32-169.15
	c-21.65-67.45-21.75-135.4,0.84-202.46c24.16-71.72,68.21-129.07,130.93-171.8c58.8-40.06,123.95-59.94,194.92-58.78
	c80.03,1.31,150.86,28.47,212.36,79.78c48.43,40.41,83.02,90.71,102.9,150.26c23.89,71.57,22.86,143.57-2.64,214.81
	c-27.2,75.95-76.81,133.56-145.01,175.77c-4.22,2.61-8.47,5.18-13.16,8.04c4.68,7.4,9.27,14.68,13.89,21.96
	c8.12,12.8,16.33,25.54,24.34,38.42c2.15,3.45,4.6,5.26,8.88,4.82c4.13-0.43,8.32-0.15,12.49-0.18c11.29-0.09,20.68,9.5,20.71,21.13
	c0.02,11.81-9.13,21.36-20.56,21.35c-53.33-0.04-106.65-0.13-159.98-0.15c-92.82-0.03-185.65-0.02-278.47-0.05
	c-9.82,0-16.89-4.88-19.99-13.59c-3.16-8.88-1.03-18.44,6.47-23.84c3.56-2.57,8.35-3.83,12.78-4.7c3.85-0.76,8-0.46,11.96-0.06
	c5.08,0.51,8.14-1.34,10.88-5.75c11.78-18.96,23.96-37.67,35.99-56.48C177.21,630.74,177.68,629.88,178.29,628.87z M468.16,192.24
	c22.77-22.74,45.7-45.63,68.99-68.89c-29.9-27.13-63.25-48.97-102.44-63.23c0,35.74,0,70.46,0,105.17
	c-11.6-5.24-22.7-10.43-33.96-15.24c-3.22-1.37-4.37-2.87-4.33-6.51c0.26-29.66,0.16-59.33,0.4-89c0.03-4.01-1.27-5.71-5.12-6.19
	c-6.11-0.76-12.18-1.91-18.29-2.72c-5.36-0.71-10.75-1.17-16.94-1.83c0,42.15,0,83.36,0,124.55c-1.39,0.2-2.04,0.39-2.69,0.37
	c-19.21-0.4-38.33,0.1-57.03,5.33c-1.35,0.38-3.49-0.66-4.76-1.67c-4.43-3.51-8.83-7.12-12.91-11.03c-8.79-8.42-18-10.38-28.52-3.09
	c-3.02,2.09-6.65,3.3-10.85,5.33c0-34.98,0-68.75,0-103.66c-39.4,14.6-72.96,36.52-103.27,65.26c22.97,22.4,45.34,44.21,67.71,66.02
	c5.89-4.88,12.09-10.02,18.43-15.27c6.11,8.15,11.66,15.56,17.58,23.46c-30.08,24.52-49.64,55.37-57.53,92.86
	c-7.82,37.14-5.92,73.55,11.94,108.42c7.54-7.15,7.63-7.19,4.26-15.35c-8.06-19.5-10.39-39.86-9.47-60.75
	c0.13-2.88,0.57-5.05,4.52-3.24c-1.56,45.59,13.03,85.06,44.87,117.96c32.14,33.21,71.64,47.93,117.98,46.26
	c0,45.87,0,91.09,0,137.08c39.25-3.29,76.38-11.86,112.01-29.54c-21.86-26.2-43.41-52.02-64.89-77.78
	c10.48-5.5,20.16-10.34,29.56-15.66c3.33-1.89,5.09-1.37,7.42,1.36c19.05,22.29,38.22,44.47,57.37,66.68
	c1.59,1.85,3.23,3.65,5.21,5.89c10.75-8.79,21.13-17.26,31.79-25.98c-23.2-24.21-45.86-47.85-68.44-71.42
	c8.54-9.43,16.89-18.66,25.35-28c23.38,23.93,46.6,47.7,70.06,71.71c20.35-24.9,36.37-51.51,47.49-81.66
	c-33.43-5.19-66.25-10.29-99.69-15.49c0.96-2.28,1.57-3.78,2.22-5.27c2.87-6.56,6.01-13.02,8.57-19.69
	c4.35-11.31,4.17-11.22,16.08-9.37c26.34,4.09,52.72,7.97,79.05,12.09c4.31,0.67,6.46-0.22,7-4.94c1.32-11.41,3.05-22.77,4.57-34.16
	c0.17-1.25,0.02-2.54,0.02-4.36c-29.11,0-57.79,0-87.15,0c2.83-5.23,5.03-9.92,7.8-14.24c2.36-3.68,2.61-6.75,0.01-10.45
	c-2.88-4.11-5.19-8.61-8.31-13.89c30.01,0,58.78,0,88.96,0c-1.72-14.92-3.35-29.12-5.02-43.6c-33.44,4.34-65.43,8.49-96.95,12.58
	c-4.78-12.15-9.25-23.54-14-35.61c33.26-4.66,66.46-9.32,100.23-14.05c-11.78-31.06-26.73-59.35-47.94-84.52
	c-23.71,23.19-46.88,45.86-70.09,68.55C486.12,212.05,477.54,202.6,468.16,192.24z M458.61,645.58c-0.77,0-1.13-0.09-1.42,0.01
	c-51.03,17.48-103.39,23.6-157.03,18.06c-27.07-2.8-53.77-7.54-79.17-17.79c-2.96-1.2-4.03-0.26-5.48,2.05
	c-7.54,11.98-15.25,23.85-22.88,35.76c-1.94,3.02-3.83,6.08-6.09,9.68c100.88,0,200.94,0,301.94,0
	C478.17,676.88,468.34,661.14,458.61,645.58z M206.77,592.64c35.11,17.74,71.98,26.44,110.67,29.94c0-32.44,0-64.5,0-95.85
	c-14.68-3.77-28.96-7.52-43.3-11.01c-1.32-0.32-3.58,0.52-4.49,1.6c-14.14,16.81-28.11,33.76-42.16,50.65
	C220.81,576.01,214.04,583.99,206.77,592.64z M109.47,153.46c-20.83,25.63-36.71,53.55-47.73,84.52c1.37,0.37,2.15,0.67,2.95,0.79
	c30.47,4.51,60.95,9.05,91.45,13.37c1.39,0.2,3.74-1.09,4.49-2.37c5.55-9.45,10.8-19.08,16.26-28.85
	C154.89,198.92,132.46,176.46,109.47,153.46z M112.75,519.28c22.81-23.73,45.24-47.07,67.52-70.25
	c-5.22-8.26-10.09-16.18-15.25-23.92c-0.72-1.08-2.95-1.87-4.33-1.68c-16.8,2.37-33.58,4.91-50.36,7.5
	c-15.07,2.32-30.13,4.76-45.89,7.25C77.21,467.42,92.51,494.32,112.75,519.28z M317.4,44.52c-1.57,0-2.87-0.14-4.13,0.02
	c-10.07,1.33-20.11,2.98-30.21,3.98c-4.69,0.47-5.56,2.6-5.52,6.76c0.22,28.16,0.23,56.33,0.33,84.49c0.01,1.42,0.23,2.84,0.36,4.22
	c13.35-2.2,26.23-4.32,39.17-6.46C317.4,106.77,317.4,75.83,317.4,44.52z M171.97,573.14c21.26-24.64,42.15-48.86,62.77-72.77
	c-7.96-6.74-15.51-12.76-22.58-19.28c-3.65-3.37-5.81-3.29-9.22,0.39c-12.56,13.55-25.49,26.75-38.25,40.12
	c-8.11,8.5-16.15,17.08-24.91,26.35C150.65,556.46,161.07,564.61,171.97,573.14z M45.89,318.59c6.81,0,11.96,0,17.1,0
	c24.81-0.01,49.62,0.02,74.43-0.15c1.66-0.01,4.57-1.35,4.77-2.46c1.66-9.13,2.82-18.34,4.19-27.95c-9.2-1.23-18.42-2.43-27.62-3.71
	c-20.94-2.9-41.87-5.84-62.81-8.76c-2.18-0.3-4.53-0.91-4.94,2.33C49.31,291.21,47.66,304.53,45.89,318.59z M147.65,387.72
	c-1.64-9.16-3.37-17.63-4.59-26.18c-0.49-3.44-1.84-4.29-5.11-4.28c-28.64,0.08-57.29,0-85.93,0c-1.7,0-3.4,0.33-5.85,0.58
	c2.27,13.51,4.49,26.27,6.51,39.07c0.62,3.92,2.72,4.12,6,3.6c12.99-2.06,26-3.97,39.02-5.83
	C114.14,392.33,130.61,390.08,147.65,387.72z"/>
<path class="st0" d="M302.6,226.74c-2.98,11.03-2.95,21.02,0.8,30.84c0.53,1.4,1.06,2.8,1.64,4.18c2.88,6.82,6.97,11.3,15.45,9.94
	c4.86-0.78,9.96-0.14,15.64-0.14c-0.81-1.31-1.21-2.31-1.9-3.04c-20.3-21.63-12.46-48.68,0.16-61.46
	c15.84-16.04,44.21-16.96,62.59-1.83c8.33,6.86,14.32,15.41,17.28,25.76c1.23,4.31,3.36,6.36,7.63,7.08
	c3.07,0.52,6.01,1.77,9.52,2.86c2.7-24.17-9.95-39.96-27.93-54c1.75-0.08,2.75-0.3,3.7-0.15c26.83,4.12,47.46,27.82,41.16,56.86
	c-0.35,1.62,0.52,4.31,1.77,5.36c28.76,24.2,51.84,53.08,70.95,85.28c0.82,1.38,1.62,3.81,0.97,4.87
	c-8.05,13.2-15.45,26.94-24.86,39.12c-11.4,14.77-28.46,22.23-45.2,29.39c-8.55,3.65-17.56,6.2-26.3,9.43
	c-1.74,0.64-3.57,1.77-4.7,3.2c-4.98,6.24-9.71,12.68-15.14,19.84c6.67,8.56,13.66,17.55,21.1,27.1
	c-11.77,7.66-23.17,15.08-36.02,23.45c-1.44-2.04-2.72-4.17-4.31-6.05c-6.34-7.51-12.66-15.04-19.29-22.29
	c-1.27-1.39-4.05-2.45-5.87-2.13c-89.74,15.78-165.68-71.29-136.72-157.36c10.77-32.02,31.85-55.81,62.24-70.99
	c3.1-1.55,6.55-2.4,9.86-3.51C298.38,227.8,300,227.45,302.6,226.74z M283.56,356.81c0.08,30.12,23.22,53.64,52.94,53.6
	c35.76-0.04,53.67-30.09,53.9-53.1c0.3-30.5-23.43-54.65-53.13-54.64C307.44,302.68,283.49,326.82,283.56,356.81z M344.63,229.35
	c2.69,0,4.37-0.3,5.9,0.05c5.94,1.36,12.43,1.84,17.6,4.68c8.88,4.89,13.3,13.22,13.02,23.69c-0.13,4.72-0.02,9.44-0.02,15.49
	c2.53-1.8,4.08-2.63,5.29-3.82c8.18-7.97,10.78-21.88,6.27-32.93c-4.62-11.32-16.39-19.76-27.83-19.6
	C356.28,217.02,349.6,220.69,344.63,229.35z M462.43,314.59c-0.02-8.96-8.54-17.75-17.06-17.62c-8.86,0.14-17.26,8.64-17.27,17.49
	c-0.01,9.09,8.14,17.33,17.19,17.38C454.41,331.89,462.45,323.79,462.43,314.59z"/>
<path class="st1" d="M283.56,356.81c-0.08-29.98,23.88-54.13,53.71-54.14c29.7-0.01,53.43,24.14,53.13,54.64
	c-0.23,23.02-18.14,53.06-53.9,53.1C306.78,410.44,283.64,386.93,283.56,356.81z M309.81,356.32
	c-0.02,14.62,12.44,27.32,26.89,27.39c14.37,0.07,27.49-12.97,27.65-27.48c0.16-14.57-12.74-27.4-27.5-27.35
	C321.53,328.93,309.84,340.8,309.81,356.32z"/>
<path class="st1" d="M344.63,229.35c4.97-8.65,11.65-12.32,20.23-12.44c11.44-0.16,23.2,8.28,27.83,19.6
	c4.51,11.05,1.91,24.96-6.27,32.93c-1.21,1.18-2.77,2.02-5.29,3.82c0-6.04-0.11-10.77,0.02-15.49c0.29-10.48-4.13-18.81-13.02-23.69
	c-5.17-2.84-11.66-3.31-17.6-4.68C349,229.05,347.32,229.35,344.63,229.35z"/>
<path class="st1" d="M462.43,314.59c0.03,9.2-8.02,17.3-17.13,17.25c-9.06-0.05-17.2-8.29-17.19-17.38
	c0.01-8.85,8.41-17.35,17.27-17.49C453.89,296.83,462.4,305.63,462.43,314.59z"/>
<path class="st0" d="M309.81,356.32c0.03-15.52,11.72-27.39,27.03-27.44c14.76-0.05,27.66,12.78,27.5,27.35
	c-0.16,14.51-13.28,27.55-27.65,27.48C322.25,383.64,309.79,370.94,309.81,356.32z"/>
</svg>
